<?xml version="1.0"?>
<svg xmlns="http://www.w3.org/2000/svg" version="1.1" width="1000" height="900">
<circle cx="224.48392" cy="499.3196" r="2" color="rgb(0,0,0)"/>
<line x1="224.48392" y1="499.3196" x2="230.62274" y2="442.43613" stroke="rgb(0,0,0)"/>
<circle cx="230.62274" cy="442.43613" r="2" color="rgb(0,0,0)"/>
<line x1="230.62274" y1="442.43613" x2="328.39453" y2="421.99893" stroke="rgb(0,0,0)"/>
<circle cx="328.39453" cy="421.99893" r="2" color="rgb(0,0,0)"/>
<line x1="328.39453" y1="421.99893" x2="510.83508" y2="473.10144" stroke="rgb(0,0,0)"/>
<circle cx="510.83508" cy="473.10144" r="2" color="rgb(0,0,0)"/>
<line x1="510.83508" y1="473.10144" x2="601.9774" y2="414.61475" stroke="rgb(0,0,0)"/>
<circle cx="601.9774" cy="414.61475" r="2" color="rgb(0,0,0)"/>
<line x1="601.9774" y1="414.61475" x2="660.993" y2="448.16837" stroke="rgb(0,0,0)"/>
<circle cx="660.993" cy="448.16837" r="2" color="rgb(0,0,0)"/>
<line x1="660.993" y1="448.16837" x2="683.9287" y2="450.24503" stroke="rgb(0,0,0)"/>
<circle cx="683.9287" cy="450.24503" r="2" color="rgb(0,0,0)"/>
<line x1="683.9287" y1="450.24503" x2="681.90936" y2="583.99677" stroke="rgb(0,0,0)"/>
<circle cx="681.90936" cy="583.99677" r="2" color="rgb(0,0,0)"/>
<line x1="681.90936" y1="583.99677" x2="646.7708" y2="596.38245" stroke="rgb(0,0,0)"/>
<circle cx="646.7708" cy="596.38245" r="2" color="rgb(0,0,0)"/>
<line x1="646.7708" y1="596.38245" x2="651.6568" y2="563.8056" stroke="rgb(0,0,0)"/>
<circle cx="651.6568" cy="563.8056" r="2" color="rgb(0,0,0)"/>
<line x1="651.6568" y1="563.8056" x2="574.0934" y2="559.42865" stroke="rgb(0,0,0)"/>
<circle cx="574.0934" cy="559.42865" r="2" color="rgb(0,0,0)"/>
<line x1="574.0934" y1="559.42865" x2="526.52264" y2="593.11865" stroke="rgb(0,0,0)"/>
<circle cx="526.52264" cy="593.11865" r="2" color="rgb(0,0,0)"/>
<line x1="526.52264" y1="593.11865" x2="456.00113" y2="670.305" stroke="rgb(0,0,0)"/>
<circle cx="456.00113" cy="670.305" r="2" color="rgb(0,0,0)"/>
<line x1="456.00113" y1="670.305" x2="441.41342" y2="628.45856" stroke="rgb(0,0,0)"/>
<circle cx="441.41342" cy="628.45856" r="2" color="rgb(0,0,0)"/>
<line x1="441.41342" y1="628.45856" x2="429.2943" y2="577.8015" stroke="rgb(0,0,0)"/>
<circle cx="429.2943" cy="577.8015" r="2" color="rgb(0,0,0)"/>
<line x1="429.2943" y1="577.8015" x2="364.06708" y2="576.299" stroke="rgb(0,0,0)"/>
<circle cx="364.06708" cy="576.299" r="2" color="rgb(0,0,0)"/>
<line x1="364.06708" y1="576.299" x2="375.06268" y2="787.57983" stroke="rgb(0,0,0)"/>
<circle cx="375.06268" cy="787.57983" r="2" color="rgb(0,0,0)"/>
<line x1="375.06268" y1="787.57983" x2="401.29614" y2="723.0913" stroke="rgb(0,0,0)"/>
<circle cx="401.29614" cy="723.0913" r="2" color="rgb(0,0,0)"/>
<line x1="401.29614" y1="723.0913" x2="483.94608" y2="744.9682" stroke="rgb(0,0,0)"/>
<circle cx="483.94608" cy="744.9682" r="2" color="rgb(0,0,0)"/>
<line x1="483.94608" y1="744.9682" x2="582.37177" y2="761.9774" stroke="rgb(0,0,0)"/>
<circle cx="582.37177" cy="761.9774" r="2" color="rgb(0,0,0)"/>
<line x1="582.37177" y1="761.9774" x2="607.91125" y2="683.75476" stroke="rgb(0,0,0)"/>
<circle cx="607.91125" cy="683.75476" r="2" color="rgb(0,0,0)"/>
<line x1="607.91125" y1="683.75476" x2="636.1529" y2="667.6538" stroke="rgb(0,0,0)"/>
<circle cx="636.1529" cy="667.6538" r="2" color="rgb(0,0,0)"/>
<line x1="636.1529" y1="667.6538" x2="748.6958" y2="649.2474" stroke="rgb(0,0,0)"/>
<circle cx="748.6958" cy="649.2474" r="2" color="rgb(0,0,0)"/>
<line x1="748.6958" y1="649.2474" x2="701.256" y2="727.23694" stroke="rgb(0,0,0)"/>
<circle cx="701.256" cy="727.23694" r="2" color="rgb(0,0,0)"/>
<line x1="701.256" y1="727.23694" x2="713.351" y2="793.53577" stroke="rgb(0,0,0)"/>
<circle cx="713.351" cy="793.53577" r="2" color="rgb(0,0,0)"/>
<line x1="713.351" y1="793.53577" x2="780.58545" y2="780.3701" stroke="rgb(0,0,0)"/>
<circle cx="780.58545" cy="780.3701" r="2" color="rgb(0,0,0)"/>
<line x1="780.58545" y1="780.3701" x2="810.08777" y2="730.0494" stroke="rgb(0,0,0)"/>
<circle cx="810.08777" cy="730.0494" r="2" color="rgb(0,0,0)"/>
<line x1="810.08777" y1="730.0494" x2="875.57916" y2="779.8384" stroke="rgb(0,0,0)"/>
<circle cx="875.57916" cy="779.8384" r="2" color="rgb(0,0,0)"/>
<line x1="875.57916" y1="779.8384" x2="891.9595" y2="736.4431" stroke="rgb(0,0,0)"/>
<circle cx="891.9595" cy="736.4431" r="2" color="rgb(0,0,0)"/>
<line x1="891.9595" y1="736.4431" x2="898.0963" y2="694.9425" stroke="rgb(0,0,0)"/>
<circle cx="898.0963" cy="694.9425" r="2" color="rgb(0,0,0)"/>
<line x1="898.0963" y1="694.9425" x2="934.3021" y2="601.8021" stroke="rgb(0,0,0)"/>
<circle cx="934.3021" cy="601.8021" r="2" color="rgb(0,0,0)"/>
<line x1="934.3021" y1="601.8021" x2="858.7385" y2="552.1927" stroke="rgb(0,0,0)"/>
<circle cx="858.7385" cy="552.1927" r="2" color="rgb(0,0,0)"/>
<line x1="858.7385" y1="552.1927" x2="882.9401" y2="427.34125" stroke="rgb(0,0,0)"/>
<circle cx="882.9401" cy="427.34125" r="2" color="rgb(0,0,0)"/>
<line x1="882.9401" y1="427.34125" x2="958.7394" y2="361.0673" stroke="rgb(0,0,0)"/>
<circle cx="958.7394" cy="361.0673" r="2" color="rgb(0,0,0)"/>
<line x1="958.7394" y1="361.0673" x2="622.1854" y2="302.1803" stroke="rgb(0,0,0)"/>
<circle cx="622.1854" cy="302.1803" r="2" color="rgb(0,0,0)"/>
<line x1="622.1854" y1="302.1803" x2="658.3888" y2="252.54448" stroke="rgb(0,0,0)"/>
<circle cx="658.3888" cy="252.54448" r="2" color="rgb(0,0,0)"/>
<line x1="658.3888" y1="252.54448" x2="775.5098" y2="238.61823" stroke="rgb(0,0,0)"/>
<circle cx="775.5098" cy="238.61823" r="2" color="rgb(0,0,0)"/>
<line x1="775.5098" y1="238.61823" x2="722.9314" y2="124.274475" stroke="rgb(0,0,0)"/>
<circle cx="722.9314" cy="124.274475" r="2" color="rgb(0,0,0)"/>
<line x1="722.9314" y1="124.274475" x2="701.0878" y2="157.29407" stroke="rgb(0,0,0)"/>
<circle cx="701.0878" cy="157.29407" r="2" color="rgb(0,0,0)"/>
<line x1="701.0878" y1="157.29407" x2="605.9963" y2="138.43137" stroke="rgb(0,0,0)"/>
<circle cx="605.9963" cy="138.43137" r="2" color="rgb(0,0,0)"/>
<line x1="605.9963" y1="138.43137" x2="525.39355" y2="162.71405" stroke="rgb(0,0,0)"/>
<circle cx="525.39355" cy="162.71405" r="2" color="rgb(0,0,0)"/>
<line x1="525.39355" y1="162.71405" x2="507.9419" y2="208.37727" stroke="rgb(0,0,0)"/>
<circle cx="507.9419" cy="208.37727" r="2" color="rgb(0,0,0)"/>
<line x1="507.9419" y1="208.37727" x2="453.9757" y2="251.33441" stroke="rgb(0,0,0)"/>
<circle cx="453.9757" cy="251.33441" r="2" color="rgb(0,0,0)"/>
<line x1="453.9757" y1="251.33441" x2="342.26447" y2="122.409485" stroke="rgb(0,0,0)"/>
<circle cx="342.26447" cy="122.409485" r="2" color="rgb(0,0,0)"/>
<line x1="342.26447" y1="122.409485" x2="160.80707" y2="167.03137" stroke="rgb(0,0,0)"/>
<circle cx="160.80707" cy="167.03137" r="2" color="rgb(0,0,0)"/>
<line x1="160.80707" y1="167.03137" x2="182.25107" y2="258.9341" stroke="rgb(0,0,0)"/>
<circle cx="182.25107" cy="258.9341" r="2" color="rgb(0,0,0)"/>
<line x1="182.25107" y1="258.9341" x2="129.28027" y2="681.2753" stroke="rgb(0,0,0)"/>
<circle cx="129.28027" cy="681.2753" r="2" color="rgb(0,0,0)"/>
<line x1="129.28027" y1="681.2753" x2="149.50235" y2="608.152" stroke="rgb(0,0,0)"/>
<circle cx="149.50235" cy="608.152" r="2" color="rgb(0,0,0)"/>
<line x1="149.50235" y1="608.152" x2="110.88791" y2="561.8583" stroke="rgb(0,0,0)"/>
<circle cx="110.88791" cy="561.8583" r="2" color="rgb(0,0,0)"/>
<line x1="110.88791" y1="561.8583" x2="127.216675" y2="539.95056" stroke="rgb(0,0,0)"/>
<circle cx="127.216675" cy="539.95056" r="2" color="rgb(0,0,0)"/>
<circle cx="401.29614" cy="723.0913" r="2" color="rgb(150,0,0)"/>
<line x1="401.29614" y1="723.0913" x2="483.94608" y2="744.9682" stroke="rgb(150,0,0)"/>
<circle cx="483.94608" cy="744.9682" r="2" color="rgb(150,0,0)"/>
<line x1="483.94608" y1="744.9682" x2="582.37177" y2="761.9774" stroke="rgb(150,0,0)"/>
<circle cx="582.37177" cy="761.9774" r="2" color="rgb(150,0,0)"/>
<line x1="582.37177" y1="761.9774" x2="607.91125" y2="683.75476" stroke="rgb(150,0,0)"/>
<circle cx="607.91125" cy="683.75476" r="2" color="rgb(150,0,0)"/>
<line x1="607.91125" y1="683.75476" x2="636.1529" y2="667.6538" stroke="rgb(150,0,0)"/>
<circle cx="636.1529" cy="667.6538" r="2" color="rgb(150,0,0)"/>
<line x1="636.1529" y1="667.6538" x2="748.6958" y2="649.2474" stroke="rgb(150,0,0)"/>
<circle cx="748.6958" cy="649.2474" r="2" color="rgb(150,0,0)"/>
<line x1="748.6958" y1="649.2474" x2="701.256" y2="727.23694" stroke="rgb(150,0,0)"/>
<circle cx="701.256" cy="727.23694" r="2" color="rgb(150,0,0)"/>
<line x1="701.256" y1="727.23694" x2="713.351" y2="793.53577" stroke="rgb(150,0,0)"/>
<circle cx="713.351" cy="793.53577" r="2" color="rgb(150,0,0)"/>
<line x1="713.351" y1="793.53577" x2="780.58545" y2="780.3701" stroke="rgb(150,0,0)"/>
<circle cx="780.58545" cy="780.3701" r="2" color="rgb(150,0,0)"/>
<line x1="780.58545" y1="780.3701" x2="810.08777" y2="730.0494" stroke="rgb(150,0,0)"/>
<circle cx="810.08777" cy="730.0494" r="2" color="rgb(150,0,0)"/>
<line x1="810.08777" y1="730.0494" x2="875.57916" y2="779.8384" stroke="rgb(150,0,0)"/>
<circle cx="875.57916" cy="779.8384" r="2" color="rgb(150,0,0)"/>
<line x1="875.57916" y1="779.8384" x2="891.9595" y2="736.4431" stroke="rgb(150,0,0)"/>
<circle cx="891.9595" cy="736.4431" r="2" color="rgb(150,0,0)"/>
<line x1="891.9595" y1="736.4431" x2="898.0963" y2="694.9425" stroke="rgb(150,0,0)"/>
<circle cx="898.0963" cy="694.9425" r="2" color="rgb(150,0,0)"/>
<line x1="898.0963" y1="694.9425" x2="934.3021" y2="601.8021" stroke="rgb(150,0,0)"/>
<circle cx="934.3021" cy="601.8021" r="2" color="rgb(150,0,0)"/>
<line x1="934.3021" y1="601.8021" x2="858.7385" y2="552.1927" stroke="rgb(150,0,0)"/>
<circle cx="858.7385" cy="552.1927" r="2" color="rgb(150,0,0)"/>
<line x1="858.7385" y1="552.1927" x2="882.9401" y2="427.34125" stroke="rgb(150,0,0)"/>
<circle cx="882.9401" cy="427.34125" r="2" color="rgb(150,0,0)"/>
<line x1="882.9401" y1="427.34125" x2="958.7394" y2="361.0673" stroke="rgb(150,0,0)"/>
<circle cx="958.7394" cy="361.0673" r="2" color="rgb(150,0,0)"/>
<line x1="958.7394" y1="361.0673" x2="622.1854" y2="302.1803" stroke="rgb(150,0,0)"/>
<circle cx="622.1854" cy="302.1803" r="2" color="rgb(150,0,0)"/>
<line x1="622.1854" y1="302.1803" x2="658.3888" y2="252.54448" stroke="rgb(150,0,0)"/>
<circle cx="658.3888" cy="252.54448" r="2" color="rgb(150,0,0)"/>
<line x1="658.3888" y1="252.54448" x2="775.5098" y2="238.61823" stroke="rgb(150,0,0)"/>
<circle cx="775.5098" cy="238.61823" r="2" color="rgb(150,0,0)"/>
<line x1="775.5098" y1="238.61823" x2="722.9314" y2="124.274475" stroke="rgb(150,0,0)"/>
<circle cx="722.9314" cy="124.274475" r="2" color="rgb(150,0,0)"/>
<line x1="722.9314" y1="124.274475" x2="701.0878" y2="157.29407" stroke="rgb(150,0,0)"/>
<circle cx="701.0878" cy="157.29407" r="2" color="rgb(150,0,0)"/>
<line x1="701.0878" y1="157.29407" x2="605.9963" y2="138.43137" stroke="rgb(150,0,0)"/>
<circle cx="605.9963" cy="138.43137" r="2" color="rgb(150,0,0)"/>
<line x1="605.9963" y1="138.43137" x2="525.39355" y2="162.71405" stroke="rgb(150,0,0)"/>
<circle cx="525.39355" cy="162.71405" r="2" color="rgb(150,0,0)"/>
<line x1="525.39355" y1="162.71405" x2="507.9419" y2="208.37727" stroke="rgb(150,0,0)"/>
<circle cx="507.9419" cy="208.37727" r="2" color="rgb(150,0,0)"/>
<line x1="507.9419" y1="208.37727" x2="453.9757" y2="251.33441" stroke="rgb(150,0,0)"/>
<circle cx="453.9757" cy="251.33441" r="2" color="rgb(150,0,0)"/>
<line x1="453.9757" y1="251.33441" x2="342.26447" y2="122.409485" stroke="rgb(150,0,0)"/>
<circle cx="342.26447" cy="122.409485" r="2" color="rgb(150,0,0)"/>
<line x1="342.26447" y1="122.409485" x2="160.80707" y2="167.03137" stroke="rgb(150,0,0)"/>
<circle cx="160.80707" cy="167.03137" r="2" color="rgb(150,0,0)"/>
<line x1="160.80707" y1="167.03137" x2="182.25107" y2="258.9341" stroke="rgb(150,0,0)"/>
<circle cx="182.25107" cy="258.9341" r="2" color="rgb(150,0,0)"/>
<line x1="182.25107" y1="258.9341" x2="129.28027" y2="681.2753" stroke="rgb(150,0,0)"/>
<circle cx="129.28027" cy="681.2753" r="2" color="rgb(150,0,0)"/>
<line x1="129.28027" y1="681.2753" x2="149.50235" y2="608.152" stroke="rgb(150,0,0)"/>
<circle cx="149.50235" cy="608.152" r="2" color="rgb(150,0,0)"/>
<line x1="149.50235" y1="608.152" x2="110.88791" y2="561.8583" stroke="rgb(150,0,0)"/>
<circle cx="110.88791" cy="561.8583" r="2" color="rgb(150,0,0)"/>
<line x1="110.88791" y1="561.8583" x2="127.216675" y2="539.95056" stroke="rgb(150,0,0)"/>
<circle cx="127.216675" cy="539.95056" r="2" color="rgb(150,0,0)"/>
<line x1="127.216675" y1="539.95056" x2="224.48392" y2="499.3196" stroke="rgb(150,0,0)"/>
<circle cx="224.48392" cy="499.3196" r="2" color="rgb(150,0,0)"/>
<line x1="224.48392" y1="499.3196" x2="230.62274" y2="442.43613" stroke="rgb(150,0,0)"/>
<circle cx="230.62274" cy="442.43613" r="2" color="rgb(150,0,0)"/>
<line x1="230.62274" y1="442.43613" x2="328.39453" y2="421.99893" stroke="rgb(150,0,0)"/>
<circle cx="328.39453" cy="421.99893" r="2" color="rgb(150,0,0)"/>
<line x1="328.39453" y1="421.99893" x2="510.83508" y2="473.10144" stroke="rgb(150,0,0)"/>
<circle cx="510.83508" cy="473.10144" r="2" color="rgb(150,0,0)"/>
<line x1="510.83508" y1="473.10144" x2="601.9774" y2="414.61475" stroke="rgb(150,0,0)"/>
<circle cx="601.9774" cy="414.61475" r="2" color="rgb(150,0,0)"/>
<line x1="601.9774" y1="414.61475" x2="660.993" y2="448.16837" stroke="rgb(150,0,0)"/>
<circle cx="660.993" cy="448.16837" r="2" color="rgb(150,0,0)"/>
<line x1="660.993" y1="448.16837" x2="683.9287" y2="450.24503" stroke="rgb(150,0,0)"/>
<circle cx="683.9287" cy="450.24503" r="2" color="rgb(150,0,0)"/>
<line x1="683.9287" y1="450.24503" x2="681.90936" y2="583.99677" stroke="rgb(150,0,0)"/>
<circle cx="681.90936" cy="583.99677" r="2" color="rgb(150,0,0)"/>
<line x1="681.90936" y1="583.99677" x2="646.7708" y2="596.38245" stroke="rgb(150,0,0)"/>
<circle cx="646.7708" cy="596.38245" r="2" color="rgb(150,0,0)"/>
<line x1="646.7708" y1="596.38245" x2="651.6568" y2="563.8056" stroke="rgb(150,0,0)"/>
<circle cx="651.6568" cy="563.8056" r="2" color="rgb(150,0,0)"/>
<line x1="651.6568" y1="563.8056" x2="574.0934" y2="559.42865" stroke="rgb(150,0,0)"/>
<circle cx="574.0934" cy="559.42865" r="2" color="rgb(150,0,0)"/>
<line x1="574.0934" y1="559.42865" x2="526.52264" y2="593.11865" stroke="rgb(150,0,0)"/>
<circle cx="526.52264" cy="593.11865" r="2" color="rgb(150,0,0)"/>
<line x1="526.52264" y1="593.11865" x2="456.00113" y2="670.305" stroke="rgb(150,0,0)"/>
<circle cx="456.00113" cy="670.305" r="2" color="rgb(150,0,0)"/>
<line x1="456.00113" y1="670.305" x2="441.41342" y2="628.45856" stroke="rgb(150,0,0)"/>
<circle cx="441.41342" cy="628.45856" r="2" color="rgb(150,0,0)"/>
<line x1="441.41342" y1="628.45856" x2="429.2943" y2="577.8015" stroke="rgb(150,0,0)"/>
<circle cx="429.2943" cy="577.8015" r="2" color="rgb(150,0,0)"/>
<line x1="429.2943" y1="577.8015" x2="364.06708" y2="576.299" stroke="rgb(150,0,0)"/>
<circle cx="364.06708" cy="576.299" r="2" color="rgb(150,0,0)"/>
<line x1="364.06708" y1="576.299" x2="375.06268" y2="787.57983" stroke="rgb(150,0,0)"/>
<circle cx="375.06268" cy="787.57983" r="2" color="rgb(150,0,0)"/>
<circle cx="401.29614" cy="723.0913" r="2" color="rgb(0,150,0)"/>
<line x1="401.29614" y1="723.0913" x2="483.94608" y2="744.9682" stroke="rgb(0,150,0)"/>
<circle cx="483.94608" cy="744.9682" r="2" color="rgb(0,150,0)"/>
<line x1="483.94608" y1="744.9682" x2="582.37177" y2="761.9774" stroke="rgb(0,150,0)"/>
<circle cx="582.37177" cy="761.9774" r="2" color="rgb(0,150,0)"/>
<line x1="582.37177" y1="761.9774" x2="607.91125" y2="683.75476" stroke="rgb(0,150,0)"/>
<circle cx="607.91125" cy="683.75476" r="2" color="rgb(0,150,0)"/>
<line x1="607.91125" y1="683.75476" x2="636.1529" y2="667.6538" stroke="rgb(0,150,0)"/>
<circle cx="636.1529" cy="667.6538" r="2" color="rgb(0,150,0)"/>
<line x1="636.1529" y1="667.6538" x2="748.6958" y2="649.2474" stroke="rgb(0,150,0)"/>
<circle cx="748.6958" cy="649.2474" r="2" color="rgb(0,150,0)"/>
<line x1="748.6958" y1="649.2474" x2="701.256" y2="727.23694" stroke="rgb(0,150,0)"/>
<circle cx="701.256" cy="727.23694" r="2" color="rgb(0,150,0)"/>
<line x1="701.256" y1="727.23694" x2="713.351" y2="793.53577" stroke="rgb(0,150,0)"/>
<circle cx="713.351" cy="793.53577" r="2" color="rgb(0,150,0)"/>
<line x1="713.351" y1="793.53577" x2="780.58545" y2="780.3701" stroke="rgb(0,150,0)"/>
<circle cx="780.58545" cy="780.3701" r="2" color="rgb(0,150,0)"/>
<line x1="780.58545" y1="780.3701" x2="810.08777" y2="730.0494" stroke="rgb(0,150,0)"/>
<circle cx="810.08777" cy="730.0494" r="2" color="rgb(0,150,0)"/>
<line x1="810.08777" y1="730.0494" x2="875.57916" y2="779.8384" stroke="rgb(0,150,0)"/>
<circle cx="875.57916" cy="779.8384" r="2" color="rgb(0,150,0)"/>
<line x1="875.57916" y1="779.8384" x2="891.9595" y2="736.4431" stroke="rgb(0,150,0)"/>
<circle cx="891.9595" cy="736.4431" r="2" color="rgb(0,150,0)"/>
<line x1="891.9595" y1="736.4431" x2="898.0963" y2="694.9425" stroke="rgb(0,150,0)"/>
<circle cx="898.0963" cy="694.9425" r="2" color="rgb(0,150,0)"/>
<line x1="898.0963" y1="694.9425" x2="934.3021" y2="601.8021" stroke="rgb(0,150,0)"/>
<circle cx="934.3021" cy="601.8021" r="2" color="rgb(0,150,0)"/>
<line x1="934.3021" y1="601.8021" x2="858.7385" y2="552.1927" stroke="rgb(0,150,0)"/>
<circle cx="858.7385" cy="552.1927" r="2" color="rgb(0,150,0)"/>
<line x1="858.7385" y1="552.1927" x2="882.9401" y2="427.34125" stroke="rgb(0,150,0)"/>
<circle cx="882.9401" cy="427.34125" r="2" color="rgb(0,150,0)"/>
<line x1="882.9401" y1="427.34125" x2="958.7394" y2="361.0673" stroke="rgb(0,150,0)"/>
<circle cx="958.7394" cy="361.0673" r="2" color="rgb(0,150,0)"/>
<line x1="958.7394" y1="361.0673" x2="622.1854" y2="302.1803" stroke="rgb(0,150,0)"/>
<circle cx="622.1854" cy="302.1803" r="2" color="rgb(0,150,0)"/>
<line x1="622.1854" y1="302.1803" x2="658.3888" y2="252.54448" stroke="rgb(0,150,0)"/>
<circle cx="658.3888" cy="252.54448" r="2" color="rgb(0,150,0)"/>
<line x1="658.3888" y1="252.54448" x2="775.5098" y2="238.61823" stroke="rgb(0,150,0)"/>
<circle cx="775.5098" cy="238.61823" r="2" color="rgb(0,150,0)"/>
<line x1="775.5098" y1="238.61823" x2="722.9314" y2="124.274475" stroke="rgb(0,150,0)"/>
<circle cx="722.9314" cy="124.274475" r="2" color="rgb(0,150,0)"/>
<line x1="722.9314" y1="124.274475" x2="701.0878" y2="157.29407" stroke="rgb(0,150,0)"/>
<circle cx="701.0878" cy="157.29407" r="2" color="rgb(0,150,0)"/>
<line x1="701.0878" y1="157.29407" x2="605.9963" y2="138.43137" stroke="rgb(0,150,0)"/>
<circle cx="605.9963" cy="138.43137" r="2" color="rgb(0,150,0)"/>
<line x1="605.9963" y1="138.43137" x2="525.39355" y2="162.71405" stroke="rgb(0,150,0)"/>
<circle cx="525.39355" cy="162.71405" r="2" color="rgb(0,150,0)"/>
<line x1="525.39355" y1="162.71405" x2="507.9419" y2="208.37727" stroke="rgb(0,150,0)"/>
<circle cx="507.9419" cy="208.37727" r="2" color="rgb(0,150,0)"/>
<line x1="507.9419" y1="208.37727" x2="453.9757" y2="251.33441" stroke="rgb(0,150,0)"/>
<circle cx="453.9757" cy="251.33441" r="2" color="rgb(0,150,0)"/>
<line x1="453.9757" y1="251.33441" x2="342.26447" y2="122.409485" stroke="rgb(0,150,0)"/>
<circle cx="342.26447" cy="122.409485" r="2" color="rgb(0,150,0)"/>
<line x1="342.26447" y1="122.409485" x2="160.80707" y2="167.03137" stroke="rgb(0,150,0)"/>
<circle cx="160.80707" cy="167.03137" r="2" color="rgb(0,150,0)"/>
<line x1="160.80707" y1="167.03137" x2="182.25107" y2="258.9341" stroke="rgb(0,150,0)"/>
<circle cx="182.25107" cy="258.9341" r="2" color="rgb(0,150,0)"/>
<line x1="182.25107" y1="258.9341" x2="129.28027" y2="681.2753" stroke="rgb(0,150,0)"/>
<circle cx="129.28027" cy="681.2753" r="2" color="rgb(0,150,0)"/>
<line x1="129.28027" y1="681.2753" x2="149.50235" y2="608.152" stroke="rgb(0,150,0)"/>
<circle cx="149.50235" cy="608.152" r="2" color="rgb(0,150,0)"/>
<line x1="149.50235" y1="608.152" x2="110.88791" y2="561.8583" stroke="rgb(0,150,0)"/>
<circle cx="110.88791" cy="561.8583" r="2" color="rgb(0,150,0)"/>
<line x1="110.88791" y1="561.8583" x2="127.216675" y2="539.95056" stroke="rgb(0,150,0)"/>
<circle cx="127.216675" cy="539.95056" r="2" color="rgb(0,150,0)"/>
<line x1="127.216675" y1="539.95056" x2="224.48392" y2="499.3196" stroke="rgb(0,150,0)"/>
<circle cx="224.48392" cy="499.3196" r="2" color="rgb(0,150,0)"/>
<line x1="224.48392" y1="499.3196" x2="230.62274" y2="442.43613" stroke="rgb(0,150,0)"/>
<circle cx="230.62274" cy="442.43613" r="2" color="rgb(0,150,0)"/>
<line x1="230.62274" y1="442.43613" x2="328.39453" y2="421.99893" stroke="rgb(0,150,0)"/>
<circle cx="328.39453" cy="421.99893" r="2" color="rgb(0,150,0)"/>
<line x1="328.39453" y1="421.99893" x2="510.83508" y2="473.10144" stroke="rgb(0,150,0)"/>
<circle cx="510.83508" cy="473.10144" r="2" color="rgb(0,150,0)"/>
<line x1="510.83508" y1="473.10144" x2="601.9774" y2="414.61475" stroke="rgb(0,150,0)"/>
<circle cx="601.9774" cy="414.61475" r="2" color="rgb(0,150,0)"/>
<line x1="601.9774" y1="414.61475" x2="660.993" y2="448.16837" stroke="rgb(0,150,0)"/>
<circle cx="660.993" cy="448.16837" r="2" color="rgb(0,150,0)"/>
<line x1="660.993" y1="448.16837" x2="683.9287" y2="450.24503" stroke="rgb(0,150,0)"/>
<circle cx="683.9287" cy="450.24503" r="2" color="rgb(0,150,0)"/>
<line x1="683.9287" y1="450.24503" x2="681.90936" y2="583.99677" stroke="rgb(0,150,0)"/>
<circle cx="681.90936" cy="583.99677" r="2" color="rgb(0,150,0)"/>
<line x1="681.90936" y1="583.99677" x2="646.7708" y2="596.38245" stroke="rgb(0,150,0)"/>
<circle cx="646.7708" cy="596.38245" r="2" color="rgb(0,150,0)"/>
<line x1="646.7708" y1="596.38245" x2="651.6568" y2="563.8056" stroke="rgb(0,150,0)"/>
<circle cx="651.6568" cy="563.8056" r="2" color="rgb(0,150,0)"/>
<line x1="651.6568" y1="563.8056" x2="574.0934" y2="559.42865" stroke="rgb(0,150,0)"/>
<circle cx="574.0934" cy="559.42865" r="2" color="rgb(0,150,0)"/>
<line x1="574.0934" y1="559.42865" x2="526.52264" y2="593.11865" stroke="rgb(0,150,0)"/>
<circle cx="526.52264" cy="593.11865" r="2" color="rgb(0,150,0)"/>
<line x1="526.52264" y1="593.11865" x2="456.00113" y2="670.305" stroke="rgb(0,150,0)"/>
<circle cx="456.00113" cy="670.305" r="2" color="rgb(0,150,0)"/>
<line x1="456.00113" y1="670.305" x2="441.41342" y2="628.45856" stroke="rgb(0,150,0)"/>
<circle cx="441.41342" cy="628.45856" r="2" color="rgb(0,150,0)"/>
<line x1="441.41342" y1="628.45856" x2="429.2943" y2="577.8015" stroke="rgb(0,150,0)"/>
<circle cx="429.2943" cy="577.8015" r="2" color="rgb(0,150,0)"/>
<line x1="429.2943" y1="577.8015" x2="364.06708" y2="576.299" stroke="rgb(0,150,0)"/>
<circle cx="364.06708" cy="576.299" r="2" color="rgb(0,150,0)"/>
<line x1="364.06708" y1="576.299" x2="375.06268" y2="787.57983" stroke="rgb(0,150,0)"/>
<circle cx="375.06268" cy="787.57983" r="2" color="rgb(0,150,0)"/>
<circle cx="401.29614" cy="723.0913" r="2" color="rgb(0,0,150)"/>
<line x1="401.29614" y1="723.0913" x2="483.94608" y2="744.9682" stroke="rgb(0,0,150)"/>
<circle cx="483.94608" cy="744.9682" r="2" color="rgb(0,0,150)"/>
<line x1="483.94608" y1="744.9682" x2="582.37177" y2="761.9774" stroke="rgb(0,0,150)"/>
<circle cx="582.37177" cy="761.9774" r="2" color="rgb(0,0,150)"/>
<line x1="582.37177" y1="761.9774" x2="607.91125" y2="683.75476" stroke="rgb(0,0,150)"/>
<circle cx="607.91125" cy="683.75476" r="2" color="rgb(0,0,150)"/>
<line x1="607.91125" y1="683.75476" x2="636.1529" y2="667.6538" stroke="rgb(0,0,150)"/>
<circle cx="636.1529" cy="667.6538" r="2" color="rgb(0,0,150)"/>
<line x1="636.1529" y1="667.6538" x2="748.6958" y2="649.2474" stroke="rgb(0,0,150)"/>
<circle cx="748.6958" cy="649.2474" r="2" color="rgb(0,0,150)"/>
<line x1="748.6958" y1="649.2474" x2="701.256" y2="727.23694" stroke="rgb(0,0,150)"/>
<circle cx="701.256" cy="727.23694" r="2" color="rgb(0,0,150)"/>
<line x1="701.256" y1="727.23694" x2="713.351" y2="793.53577" stroke="rgb(0,0,150)"/>
<circle cx="713.351" cy="793.53577" r="2" color="rgb(0,0,150)"/>
<line x1="713.351" y1="793.53577" x2="780.58545" y2="780.3701" stroke="rgb(0,0,150)"/>
<circle cx="780.58545" cy="780.3701" r="2" color="rgb(0,0,150)"/>
<line x1="780.58545" y1="780.3701" x2="810.08777" y2="730.0494" stroke="rgb(0,0,150)"/>
<circle cx="810.08777" cy="730.0494" r="2" color="rgb(0,0,150)"/>
<line x1="810.08777" y1="730.0494" x2="875.57916" y2="779.8384" stroke="rgb(0,0,150)"/>
<circle cx="875.57916" cy="779.8384" r="2" color="rgb(0,0,150)"/>
<line x1="875.57916" y1="779.8384" x2="891.9595" y2="736.4431" stroke="rgb(0,0,150)"/>
<circle cx="891.9595" cy="736.4431" r="2" color="rgb(0,0,150)"/>
<line x1="891.9595" y1="736.4431" x2="898.0963" y2="694.9425" stroke="rgb(0,0,150)"/>
<circle cx="898.0963" cy="694.9425" r="2" color="rgb(0,0,150)"/>
<line x1="898.0963" y1="694.9425" x2="934.3021" y2="601.8021" stroke="rgb(0,0,150)"/>
<circle cx="934.3021" cy="601.8021" r="2" color="rgb(0,0,150)"/>
<line x1="934.3021" y1="601.8021" x2="858.7385" y2="552.1927" stroke="rgb(0,0,150)"/>
<circle cx="858.7385" cy="552.1927" r="2" color="rgb(0,0,150)"/>
<line x1="858.7385" y1="552.1927" x2="882.9401" y2="427.34125" stroke="rgb(0,0,150)"/>
<circle cx="882.9401" cy="427.34125" r="2" color="rgb(0,0,150)"/>
<line x1="882.9401" y1="427.34125" x2="958.7394" y2="361.0673" stroke="rgb(0,0,150)"/>
<circle cx="958.7394" cy="361.0673" r="2" color="rgb(0,0,150)"/>
<line x1="958.7394" y1="361.0673" x2="622.1854" y2="302.1803" stroke="rgb(0,0,150)"/>
<circle cx="622.1854" cy="302.1803" r="2" color="rgb(0,0,150)"/>
<line x1="622.1854" y1="302.1803" x2="658.3888" y2="252.54448" stroke="rgb(0,0,150)"/>
<circle cx="658.3888" cy="252.54448" r="2" color="rgb(0,0,150)"/>
<line x1="658.3888" y1="252.54448" x2="775.5098" y2="238.61823" stroke="rgb(0,0,150)"/>
<circle cx="775.5098" cy="238.61823" r="2" color="rgb(0,0,150)"/>
<line x1="775.5098" y1="238.61823" x2="722.9314" y2="124.274475" stroke="rgb(0,0,150)"/>
<circle cx="722.9314" cy="124.274475" r="2" color="rgb(0,0,150)"/>
<line x1="722.9314" y1="124.274475" x2="701.0878" y2="157.29407" stroke="rgb(0,0,150)"/>
<circle cx="701.0878" cy="157.29407" r="2" color="rgb(0,0,150)"/>
<line x1="701.0878" y1="157.29407" x2="605.9963" y2="138.43137" stroke="rgb(0,0,150)"/>
<circle cx="605.9963" cy="138.43137" r="2" color="rgb(0,0,150)"/>
<line x1="605.9963" y1="138.43137" x2="525.39355" y2="162.71405" stroke="rgb(0,0,150)"/>
<circle cx="525.39355" cy="162.71405" r="2" color="rgb(0,0,150)"/>
<line x1="525.39355" y1="162.71405" x2="507.9419" y2="208.37727" stroke="rgb(0,0,150)"/>
<circle cx="507.9419" cy="208.37727" r="2" color="rgb(0,0,150)"/>
<line x1="507.9419" y1="208.37727" x2="453.9757" y2="251.33441" stroke="rgb(0,0,150)"/>
<circle cx="453.9757" cy="251.33441" r="2" color="rgb(0,0,150)"/>
<line x1="453.9757" y1="251.33441" x2="342.26447" y2="122.409485" stroke="rgb(0,0,150)"/>
<circle cx="342.26447" cy="122.409485" r="2" color="rgb(0,0,150)"/>
<line x1="342.26447" y1="122.409485" x2="160.80707" y2="167.03137" stroke="rgb(0,0,150)"/>
<circle cx="160.80707" cy="167.03137" r="2" color="rgb(0,0,150)"/>
<line x1="160.80707" y1="167.03137" x2="182.25107" y2="258.9341" stroke="rgb(0,0,150)"/>
<circle cx="182.25107" cy="258.9341" r="2" color="rgb(0,0,150)"/>
<line x1="182.25107" y1="258.9341" x2="129.28027" y2="681.2753" stroke="rgb(0,0,150)"/>
<circle cx="129.28027" cy="681.2753" r="2" color="rgb(0,0,150)"/>
<line x1="129.28027" y1="681.2753" x2="149.50235" y2="608.152" stroke="rgb(0,0,150)"/>
<circle cx="149.50235" cy="608.152" r="2" color="rgb(0,0,150)"/>
<line x1="149.50235" y1="608.152" x2="110.88791" y2="561.8583" stroke="rgb(0,0,150)"/>
<circle cx="110.88791" cy="561.8583" r="2" color="rgb(0,0,150)"/>
<line x1="110.88791" y1="561.8583" x2="127.216675" y2="539.95056" stroke="rgb(0,0,150)"/>
<circle cx="127.216675" cy="539.95056" r="2" color="rgb(0,0,150)"/>
<line x1="127.216675" y1="539.95056" x2="224.48392" y2="499.3196" stroke="rgb(0,0,150)"/>
<circle cx="224.48392" cy="499.3196" r="2" color="rgb(0,0,150)"/>
<line x1="224.48392" y1="499.3196" x2="230.62274" y2="442.43613" stroke="rgb(0,0,150)"/>
<circle cx="230.62274" cy="442.43613" r="2" color="rgb(0,0,150)"/>
<line x1="230.62274" y1="442.43613" x2="328.39453" y2="421.99893" stroke="rgb(0,0,150)"/>
<circle cx="328.39453" cy="421.99893" r="2" color="rgb(0,0,150)"/>
<line x1="328.39453" y1="421.99893" x2="510.83508" y2="473.10144" stroke="rgb(0,0,150)"/>
<circle cx="510.83508" cy="473.10144" r="2" color="rgb(0,0,150)"/>
<line x1="510.83508" y1="473.10144" x2="601.9774" y2="414.61475" stroke="rgb(0,0,150)"/>
<circle cx="601.9774" cy="414.61475" r="2" color="rgb(0,0,150)"/>
<line x1="601.9774" y1="414.61475" x2="660.993" y2="448.16837" stroke="rgb(0,0,150)"/>
<circle cx="660.993" cy="448.16837" r="2" color="rgb(0,0,150)"/>
<line x1="660.993" y1="448.16837" x2="683.9287" y2="450.24503" stroke="rgb(0,0,150)"/>
<circle cx="683.9287" cy="450.24503" r="2" color="rgb(0,0,150)"/>
<line x1="683.9287" y1="450.24503" x2="681.90936" y2="583.99677" stroke="rgb(0,0,150)"/>
<circle cx="681.90936" cy="583.99677" r="2" color="rgb(0,0,150)"/>
<line x1="681.90936" y1="583.99677" x2="646.7708" y2="596.38245" stroke="rgb(0,0,150)"/>
<circle cx="646.7708" cy="596.38245" r="2" color="rgb(0,0,150)"/>
<line x1="646.7708" y1="596.38245" x2="651.6568" y2="563.8056" stroke="rgb(0,0,150)"/>
<circle cx="651.6568" cy="563.8056" r="2" color="rgb(0,0,150)"/>
<line x1="651.6568" y1="563.8056" x2="574.0934" y2="559.42865" stroke="rgb(0,0,150)"/>
<circle cx="574.0934" cy="559.42865" r="2" color="rgb(0,0,150)"/>
<line x1="574.0934" y1="559.42865" x2="526.52264" y2="593.11865" stroke="rgb(0,0,150)"/>
<circle cx="526.52264" cy="593.11865" r="2" color="rgb(0,0,150)"/>
<line x1="526.52264" y1="593.11865" x2="456.00113" y2="670.305" stroke="rgb(0,0,150)"/>
<circle cx="456.00113" cy="670.305" r="2" color="rgb(0,0,150)"/>
<line x1="456.00113" y1="670.305" x2="441.41342" y2="628.45856" stroke="rgb(0,0,150)"/>
<circle cx="441.41342" cy="628.45856" r="2" color="rgb(0,0,150)"/>
<line x1="441.41342" y1="628.45856" x2="429.2943" y2="577.8015" stroke="rgb(0,0,150)"/>
<circle cx="429.2943" cy="577.8015" r="2" color="rgb(0,0,150)"/>
<line x1="429.2943" y1="577.8015" x2="364.06708" y2="576.299" stroke="rgb(0,0,150)"/>
<circle cx="364.06708" cy="576.299" r="2" color="rgb(0,0,150)"/>
<line x1="364.06708" y1="576.299" x2="375.06268" y2="787.57983" stroke="rgb(0,0,150)"/>
<circle cx="375.06268" cy="787.57983" r="2" color="rgb(0,0,150)"/>
</svg>